# File created by Blade
# Date/Time:  Wed Apr 08 14:47:28 2015
#---------------------------------------------------------
:version 1.10
:name HOM
:units
  mass 1.0
  length 1.000000
  angle deg
:documentation
     Acclaim Skeleton File
:root
   axis xyz
   order TX TY TZ RX RY RZ
   position 0.000000 0.000000 0.000000
   orientation 0 0 0
:bonedata
   begin
      id 1
      name Spine_dum
      direction 0.000000 1.000000 0.000000
      length 4.885285
      axis 0.0 0.0 0.0 xyz
   end
   begin
      id 2
      name LeftUpLeg_dum
      direction 1.000000 0.000000 0.000000
      length 2.672193
      axis 0.0 0.0 0.0 xyz
   end
   begin
      id 3
      name RightUpLeg_dum
      direction -1.000000 0.000000 0.000000
      length 2.672193
      axis 0.0 0.0 0.0 xyz
   end
   begin
      id 4
      name Spine
      direction 0.000000 1.000000 0.000000
      length 0.000000
      axis 0.0 0.0 0.0 xyz
      dof rx ry rz
   end
   begin
      id 5
      name Spine_dum1
      direction 0.000000 1.000000 0.000000
      length 16.494159
      axis 0.0 0.0 0.0 xyz
   end
   begin
      id 6
      name Spine_dum2
      direction 0.000000 1.000000 0.000000
      length 10.663448
      axis 0.0 0.0 0.0 xyz
   end
   begin
      id 7
      name Spine_dum3
      direction 0.000000 1.000000 0.000000
      length 10.663448
      axis 0.0 0.0 0.0 xyz
   end
   begin
      id 8
      name Head
      direction 0.000000 1.000000 0.000000
      length 4.527550
      axis 0.0 0.0 0.0 xyz
      dof rx ry rz
   end
   begin
      id 9
      name LeftShoulder
      direction 1.000000 0.000000 0.000000
      length 7.531907
      axis 0.0 0.0 -90.0 xyz
      dof rx ry rz
   end
   begin
      id 10
      name LeftArm
      direction 1.000000 0.000000 0.000000
      length 10.229199
      axis 0.0 0.0 -90.0 xyz
      dof rx ry rz
   end
   begin
      id 11
      name LeftForeArm
      direction 1.000000 0.000000 0.000000
      length 8.673495
      axis 0.0 0.0 -90.0 xyz
      dof ry rz rx
   end
   begin
      id 12
      name LeftHand
      direction 0.000000 0.000000 0.000000
      length 0.000000
      axis 0.0 0.0 -90.0 xyz
      dof rx ry rz
   end
   begin
      id 13
      name LeftHand_dum1
      direction 0.000000 0.000000 0.000000
      length 0.000000
      axis 0.0 0.0 -90.0 xyz
   end
   begin
      id 14
      name LeftHand_dum2
      direction 1.000000 0.000000 0.000000
      length 3.937000
      axis 0.0 0.0 -90.0 xyz
   end
   begin
      id 15
      name LeftHandThumb1
      direction 0.000000 0.000000 1.000000
      length 3.937000
      axis 0.0 0.0 -90.0 xyz
      dof rx rz ry
   end
   begin
      id 16
      name RightShoulder
      direction -1.000000 0.000000 0.000000
      length 7.531907
      axis 0.0 0.0 90.0 xyz
      dof rx ry rz
   end
   begin
      id 17
      name RightArm
      direction -1.000000 0.000000 0.000000
      length 10.229199
      axis 0.0 0.0 90.0 xyz
      dof rx ry rz
   end
   begin
      id 18
      name RightForeArm
      direction -1.000000 0.000000 0.000000
      length 8.673495
      axis 0.0 0.0 90.0 xyz
      dof ry rz rx
   end
   begin
      id 19
      name RightHand
      direction 0.000000 0.000000 0.000000
      length 0.000000
      axis 0.0 0.0 90.0 xyz
      dof rx ry rz
   end
   begin
      id 20
      name RightHand_dum1
      direction 0.000000 0.000000 0.000000
      length 0.000000
      axis 0.0 0.0 90.0 xyz
   end
   begin
      id 21
      name RightHand_dum2
      direction -1.000000 0.000000 0.000000
      length 3.937000
      axis 0.0 0.0 90.0 xyz
   end
   begin
      id 22
      name RightHandThumb1
      direction 0.000000 0.000000 1.000000
      length 3.937000
      axis 0.0 0.0 90.0 xyz
      dof rx rz ry
   end
   begin
      id 23
      name LeftUpLeg
      direction 0.000000 -1.000000 0.000000
      length 16.263388
      axis 0.0 0.0 0.0 xyz
      dof rx ry rz
   end
   begin
      id 24
      name LeftLeg
      direction 0.000000 -1.000000 0.000000
      length 14.328163
      axis 0.0 0.0 0.0 xyz
      dof rx ry rz
   end
   begin
      id 25
      name LeftFoot
      direction 0.000000 -0.258819 0.965926
      length 5.031290
      axis 15.0 0.0 0.0 xyz
      dof rx ry rz
   end
   begin
      id 26
      name LeftToeBase
      direction 0.000000 0.000000 1.000000
      length 2.952750
      axis 0.0 0.0 0.0 xyz
      dof rx ry rz
   end
   begin
      id 27
      name RightUpLeg
      direction 0.000000 -1.000000 0.000000
      length 16.263388
      axis 0.0 0.0 0.0 xyz
      dof rx ry rz
   end
   begin
      id 28
      name RightLeg
      direction 0.000000 -1.000000 0.000000
      length 14.328163
      axis 0.0 0.0 0.0 xyz
      dof rx ry rz
   end
   begin
      id 29
      name RightFoot
      direction 0.000000 -0.258819 0.965926
      length 5.031290
      axis 15.0 0.0 0.0 xyz
      dof rx ry rz
   end
   begin
      id 30
      name RightToeBase
      direction 0.000000 0.000000 1.000000
      length 2.952750
      axis 0.0 0.0 0.0 xyz
      dof rx ry rz
   end
:hierarchy
   begin
      root Spine_dum LeftUpLeg_dum RightUpLeg_dum
      Spine_dum Spine
      LeftUpLeg_dum LeftUpLeg
      RightUpLeg_dum RightUpLeg
      Spine Spine_dum1 Spine_dum2 Spine_dum3
      Spine_dum1 Head
      Spine_dum2 LeftShoulder
      Spine_dum3 RightShoulder
      LeftShoulder LeftArm
      LeftArm LeftForeArm
      LeftForeArm LeftHand
      LeftHand LeftHand_dum1 LeftHand_dum2
      LeftHand_dum1 LeftHandThumb1
      RightShoulder RightArm
      RightArm RightForeArm
      RightForeArm RightHand
      RightHand RightHand_dum1 RightHand_dum2
      RightHand_dum1 RightHandThumb1
      LeftUpLeg LeftLeg
      LeftLeg LeftFoot
      LeftFoot LeftToeBase
      RightUpLeg RightLeg
      RightLeg RightFoot
      RightFoot RightToeBase
   end

# File created by Blade
# Date/Time:  Wed Apr 08 14:47:20 2015
# Frame Rate: 120.000 fps
#------------------------------------------------------
:FULLY-SPECIFIED
:DEGREES
1
root -0.872166 32.796078 -10.815433 14.300045 -0.572001 -2.140872
Spine -18.994823 -5.221134 1.602163
Head 12.254187 -3.286947 -0.201473
LeftShoulder -20.258200 41.348419 21.884254
LeftArm 60.904940 -56.316827 -61.495094
LeftForeArm 6.726767 -0.000000 -3.360586
LeftHand 4.177445 -0.000000 5.059296
LeftHandThumb1 -26.253704 0.000000 33.147579
RightShoulder -7.166470 2.541336 -31.125152
RightArm 13.847194 15.839668 39.923354
RightForeArm -9.912528 -0.000000 0.645541
RightHand 2.257411 0.000000 1.111684
RightHandThumb1 -24.326973 -0.000000 -32.862282
LeftUpLeg -5.233014 -1.528125 3.609545
LeftLeg -5.006586 -0.000000 0.000000
LeftFoot -5.076627 9.203469 -19.056315
LeftToeBase -7.732307 -0.000000 0.000000
RightUpLeg -2.456957 1.926476 2.264579
RightLeg -7.687620 -0.000000 0.000000
RightFoot -4.751797 -14.801143 9.211683
RightToeBase -1.927515 -0.000000 0.000000
2
root -0.867169 32.789100 -10.823887 14.299942 -0.561424 -2.101131
Spine -18.965351 -5.254380 1.567998
Head 12.285120 -3.280650 -0.212805
LeftShoulder -20.257699 41.362343 21.856085
LeftArm 60.661447 -56.228802 -61.118444
LeftForeArm 6.571800 0.000000 -3.401809
LeftHand 4.217235 -0.000000 5.194437
LeftHandThumb1 -26.253704 0.000000 33.147579
RightShoulder -7.137199 2.524785 -31.120701
RightArm 13.847880 15.881736 39.914039
RightForeArm -10.041582 -0.000000 0.643190
RightHand 2.235165 -0.000000 0.798659
RightHandThumb1 -24.326973 -0.000000 -32.862282
LeftUpLeg -5.232389 -1.544325 3.568609
LeftLeg -5.040906 -0.000000 0.000000
LeftFoot -5.096397 9.186480 -19.054415
LeftToeBase -7.752468 -0.000000 0.000000
RightUpLeg -2.476764 1.887629 2.227827
RightLeg -7.662919 -0.000000 0.000000
RightFoot -4.876786 -14.803418 9.160175
RightToeBase -1.814699 -0.000000 0.000000
3
root -0.861161 32.782095 -10.833243 14.308488 -0.557190 -2.059962
Spine -18.939782 -5.270263 1.524088
Head 12.297650 -3.306827 -0.217996
LeftShoulder -20.257394 41.393839 21.842975
LeftArm 60.681789 -56.232574 -61.093982
LeftForeArm 6.566509 -0.000000 -3.364610
LeftHand 4.234355 -0.000000 5.222226
LeftHandThumb1 -26.253704 0.000000 33.147579
RightShoulder -7.133780 2.532988 -31.124130
RightArm 13.845122 15.964578 39.924036
RightForeArm -10.295142 -0.000000 0.640858
RightHand 2.414556 -0.000000 0.984819
RightHandThumb1 -24.326973 -0.000000 -32.862282
LeftUpLeg -5.239305 -1.542823 3.513897
LeftLeg -5.082187 -0.000000 0.000000
LeftFoot -5.130935 9.197775 -19.065612
LeftToeBase -7.670788 -0.000000 0.000000
RightUpLeg -2.491780 1.878868 2.185394
RightLeg -7.672741 -0.000000 0.000000
RightFoot -4.956640 -14.830954 9.089034
RightToeBase -1.834704 -0.000000 0.000000
4
root -0.857455 32.775368 -10.842233 14.305650 -0.537391 -2.034489
Spine -18.899774 -5.296611 1.490863
Head 12.307340 -3.323804 -0.208245
LeftShoulder -20.258629 41.411741 21.849044
LeftArm 60.749537 -56.243532 -61.146762
LeftForeArm 6.584134 0.000000 -3.319677
LeftHand 4.225055 -0.000000 5.215026
LeftHandThumb1 -26.253704 0.000000 33.147579
RightShoulder -7.141509 2.554758 -31.125436
RightArm 13.841456 15.936356 39.929048
RightForeArm -10.293320 -0.000000 0.651918
RightHand 2.297229 -0.000000 0.998146
RightHandThumb1 -24.326973 -0.000000 -32.862282
LeftUpLeg -5.232708 -1.542579 3.488114
LeftLeg -5.124653 -0.000000 0.000000
LeftFoot -5.141970 9.146145 -19.077496
LeftToeBase -7.716649 -0.000000 0.000000
RightUpLeg -2.499358 1.844506 2.162902
RightLeg -7.669150 -0.000000 0.000000
RightFoot -5.056336 -14.894446 9.081110
RightToeBase -1.885543 -0.000000 0.000000
5
root -0.853291 32.769675 -10.851437 14.315348 -0.515988 -2.006717
Spine -18.879458 -5.325634 1.468587
Head 12.327514 -3.342749 -0.226943
LeftShoulder -20.285707 41.456541 21.802377
LeftArm 60.593010 -56.158461 -60.890933
LeftForeArm 6.437756 -0.000000 -3.263739
LeftHand 4.033850 0.000000 5.134628
LeftHandThumb1 -26.253704 0.000000 33.147579
RightShoulder -7.141515 2.512988 -31.124649
RightArm 13.877348 15.950573 39.945353
RightForeArm -10.290303 -0.000000 0.666734
RightHand 2.327654 0.000000 0.949504
RightHandThumb1 -24.326973 -0.000000 -32.862282
LeftUpLeg -5.234270 -1.583354 3.464202
LeftLeg -5.174812 -0.000000 0.000000
LeftFoot -5.163481 9.143012 -19.088298
LeftToeBase -7.617446 -0.000000 0.000000
RightUpLeg -2.508973 1.831541 2.136678
RightLeg -7.690073 -0.000000 0.000000
RightFoot -5.124810 -14.916529 9.042920
RightToeBase -1.820145 -0.000000 0.000000
6
root -0.848981 32.764895 -10.861706 14.328611 -0.487040 -1.990780
Spine -18.859832 -5.341935 1.454045
Head 12.341307 -3.373316 -0.236270
LeftShoulder -20.266115 41.454230 21.809163
LeftArm 60.837032 -56.224159 -61.147192
LeftForeArm 6.674467 0.000000 -3.246040
LeftHand 4.022157 -0.000000 5.219708
LeftHandThumb1 -26.253704 0.000000 33.147579
RightShoulder -7.151374 2.511006 -31.146022
RightArm 13.898169 16.102640 40.025097
RightForeArm -10.426046 0.000000 0.665073
RightHand 2.343230 0.000000 0.897614
RightHandThumb1 -24.326973 -0.000000 -32.862282
LeftUpLeg -5.249874 -1.626220 3.453233
LeftLeg -5.211200 -0.000000 0.000000
LeftFoot -5.176611 9.147367 -19.075649
LeftToeBase -7.622372 -0.000000 0.000000
RightUpLeg -2.530166 1.802051 2.123362
RightLeg -7.696920 -0.000000 0.000000
RightFoot -5.198528 -14.931581 9.024272
RightToeBase -1.735588 -0.000000 0.000000
7
root -0.842880 32.761127 -10.872113 14.353228 -0.461174 -1.966141
Spine -18.856596 -5.374621 1.446081
Head 12.365504 -3.381807 -0.270085
LeftShoulder -20.283436 41.459237 21.777567
LeftArm 60.794947 -56.175064 -61.059814
LeftForeArm 6.641961 -0.000000 -3.208658
LeftHand 4.021489 0.000000 5.233223
LeftHandThumb1 -26.253704 0.000000 33.147579
RightShoulder -7.148358 2.501301 -31.139252
RightArm 13.895366 15.910077 39.975606
RightForeArm -10.231941 -0.000000 0.700972
RightHand 2.333943 -0.000000 0.937360
RightHandThumb1 -24.326973 -0.000000 -32.862282
LeftUpLeg -5.277804 -1.659595 3.427819
LeftLeg -5.247421 -0.000000 0.000000
LeftFoot -5.177631 9.151684 -19.072493
LeftToeBase -7.626371 -0.000000 0.000000
RightUpLeg -2.562090 1.792187 2.092458
RightLeg -7.710146 -0.000000 0.000000
RightFoot -5.247426 -14.944913 9.015468
RightToeBase -1.675833 -0.000000 0.000000
8
root -0.838862 32.758482 -10.882934 14.375326 -0.427548 -1.949664
Spine -18.846416 -5.409109 1.440387
Head 12.381901 -3.393810 -0.283148
LeftShoulder -20.291010 41.468617 21.759113
LeftArm 60.746034 -56.122965 -60.992891
LeftForeArm 6.607448 -0.000000 -3.144053
LeftHand 4.018085 -0.000000 5.170933
LeftHandThumb1 -26.253704 0.000000 33.147579
RightShoulder -7.150901 2.505856 -31.144381
RightArm 13.890024 15.857655 39.989930
RightForeArm -10.173387 0.000000 0.734188
RightHand 2.378491 -0.000000 1.011818
RightHandThumb1 -24.326973 -0.000000 -32.862282
LeftUpLeg -5.314357 -1.678800 3.418465
LeftLeg -5.258674 -0.000000 0.000000
LeftFoot -5.158596 9.108216 -19.031673
LeftToeBase -7.689804 -0.000000 0.000000
RightUpLeg -2.607240 1.755725 2.076192
RightLeg -7.693079 -0.000000 0.000000
RightFoot -5.305287 -14.930042 9.035956
RightToeBase -1.673674 -0.000000 0.000000
9
root -0.834834 32.756774 -10.893155 14.395004 -0.391142 -1.941828
Spine -18.839047 -5.420889 1.440287
Head 12.412052 -3.418994 -0.311152
LeftShoulder -20.283342 41.496737 21.748421
LeftArm 60.804690 -56.081595 -61.030877
LeftForeArm 6.588335 -0.000000 -3.099747
LeftHand 4.024832 -0.000000 5.146036
LeftHandThumb1 -26.253704 0.000000 33.147579
RightShoulder -7.166058 2.464216 -31.143147
RightArm 13.909506 15.886645 40.019408
RightForeArm -10.213868 0.000000 0.753363
RightHand 2.413936 -0.000000 0.907235
RightHandThumb1 -24.326973 -0.000000 -32.862282
LeftUpLeg -5.346206 -1.708216 3.412164
LeftLeg -5.278844 -0.000000 0.000000
LeftFoot -5.149566 9.109890 -19.016942
LeftToeBase -7.635903 -0.000000 0.000000
RightUpLeg -2.641523 1.733505 2.068948
RightLeg -7.692923 -0.000000 0.000000
RightFoot -5.323889 -14.939958 9.008811
RightToeBase -1.659037 -0.000000 0.000000
10
root -0.831848 32.756228 -10.904843 14.418639 -0.360810 -1.942590
Spine -18.830717 -5.427332 1.445335
Head 12.437250 -3.421148 -0.323603
LeftShoulder -20.272463 41.508525 21.747431
LeftArm 60.847363 -56.032601 -61.063122
LeftForeArm 6.568444 0.000000 -3.078014
LeftHand 4.137468 -0.000000 5.245022
LeftHandThumb1 -26.253704 0.000000 33.147579
RightShoulder -7.175107 2.444560 -31.125442
RightArm 13.909796 15.879451 40.014474
RightForeArm -10.274090 -0.000000 0.769396
RightHand 2.381623 -0.000000 0.789100
RightHandThumb1 -24.326973 -0.000000 -32.862282
LeftUpLeg -5.390497 -1.713187 3.414515
LeftLeg -5.288794 -0.000000 0.000000
LeftFoot -5.139017 9.091066 -19.014173
LeftToeBase -7.586073 -0.000000 0.000000
RightUpLeg -2.685061 1.746073 2.065557
RightLeg -7.683942 -0.000000 0.000000
RightFoot -5.362530 -14.973029 9.002612
RightToeBase -1.576989 -0.000000 0.000000
11
root -0.827800 32.756376 -10.915224 14.432584 -0.342887 -1.937384
Spine -18.814931 -5.432050 1.446897
Head 12.465023 -3.428424 -0.353730
LeftShoulder -20.240487 41.499793 21.749498
LeftArm 60.849653 -56.022100 -61.087545
LeftForeArm 6.560920 0.000000 -3.052028
LeftHand 4.145567 -0.000000 5.208394
LeftHandThumb1 -26.253704 0.000000 33.147579
RightShoulder -7.177295 2.412943 -31.128794
RightArm 13.913884 15.880257 40.048526
RightForeArm -10.303525 -0.000000 0.798067
RightHand 2.397011 -0.000000 0.768652
RightHandThumb1 -24.326973 -0.000000 -32.862282
LeftUpLeg -5.420417 -1.722247 3.406437
LeftLeg -5.299659 -0.000000 0.000000
LeftFoot -5.123204 9.090572 -18.971382
LeftToeBase -7.614870 -0.000000 0.000000
RightUpLeg -2.729192 1.730371 2.054662
RightLeg -7.655056 -0.000000 0.000000
RightFoot -5.376488 -14.958102 8.998752
RightToeBase -1.591901 -0.000000 0.000000
12
root -0.824565 32.757454 -10.926535 14.453191 -0.311984 -1.940773
Spine -18.806740 -5.449497 1.460621
Head 12.499984 -3.425681 -0.371009
LeftShoulder -20.225144 41.506535 21.757540
LeftArm 60.868677 -55.975863 -61.132039
LeftForeArm 6.574983 0.000000 -3.042074
LeftHand 4.158657 -0.000000 5.275157
LeftHandThumb1 -26.253704 0.000000 33.147579
RightShoulder -7.173337 2.406627 -31.122142
RightArm 13.906900 15.901340 40.067893
RightForeArm -10.342397 -0.000000 0.809767
RightHand 2.532786 0.000000 0.754932
RightHandThumb1 -24.326973 -0.000000 -32.862282
LeftUpLeg -5.456879 -1.757177 3.413638
LeftLeg -5.319448 -0.000000 0.000000
LeftFoot -5.097169 9.108117 -18.966876
LeftToeBase -7.592314 -0.000000 0.000000
RightUpLeg -2.774478 1.719475 2.053297
RightLeg -7.640125 -0.000000 0.000000
RightFoot -5.386331 -14.946302 9.031319
RightToeBase -1.623621 -0.000000 0.000000
13
root -0.821927 32.758930 -10.936748 14.452348 -0.292996 -1.940694
Spine -18.773980 -5.452184 1.458161
Head 12.527461 -3.415031 -0.372523
LeftShoulder -20.194202 41.493128 21.773854
LeftArm 60.792883 -55.903816 -61.062138
LeftForeArm 6.565063 0.000000 -3.047818
LeftHand 4.014658 -0.000000 5.247718
LeftHandThumb1 -26.253704 0.000000 33.147579
RightShoulder -7.172938 2.398865 -31.110439
RightArm 13.898475 15.877215 40.079089
RightForeArm -10.369794 -0.000000 0.815071
RightHand 2.505154 -0.000000 0.795017
RightHandThumb1 -24.326973 -0.000000 -32.862282
LeftUpLeg -5.477778 -1.727605 3.406825
LeftLeg -5.321778 -0.000000 0.000000
LeftFoot -5.069156 9.077732 -18.970186
LeftToeBase -7.534608 -0.000000 0.000000
RightUpLeg -2.795554 1.724091 2.047242
RightLeg -7.625775 -0.000000 0.000000
RightFoot -5.400114 -14.960704 9.045513
RightToeBase -1.579437 -0.000000 0.000000
